<svg width="84" height="64" viewBox="0 0 84 64" fill="none" xmlns="http://www.w3.org/2000/svg">
<path d="M1.5057 38.4792V42.434H5.56965V41.0857L7.08997 41.4003V42.1493C7.08997 42.7386 6.97302 43.138 6.73913 43.3478C6.51498 43.5475 6.09104 43.6474 5.46732 43.6474H1.60803C0.984312 43.6474 0.560376 43.5425 0.336225 43.3328C0.112075 43.123 0 42.7286 0 42.1493V38.8087C0 38.2195 0.116948 37.82 0.350844 37.6103C0.565248 37.4106 0.984312 37.3107 1.60803 37.3107H5.46732C6.09104 37.3107 6.51498 37.4106 6.73913 37.6103C6.97302 37.82 7.08997 38.2195 7.08997 38.8087V39.4229L5.56965 39.6476V38.4792H1.5057Z" fill="#0061AD"/>
<path d="M9.4078 38.8087C9.4078 38.2095 9.52475 37.8101 9.75865 37.6103C9.97305 37.4106 10.3921 37.3107 11.0158 37.3107H15.7961C16.4198 37.3107 16.8389 37.4106 17.0533 37.6103C17.2872 37.8101 17.4041 38.2095 17.4041 38.8087V42.1493C17.4041 42.7386 17.2872 43.138 17.0533 43.3478C16.8291 43.5475 16.4101 43.6474 15.7961 43.6474H11.0158C10.3921 43.6474 9.97305 43.5475 9.75865 43.3478C9.52475 43.138 9.4078 42.7386 9.4078 42.1493V38.8087ZM15.8984 42.434V38.4792H10.9135V42.434H15.8984Z" fill="#0061AD"/>
<path d="M20.0039 37.3107H21.2173L24.2433 41.0708L27.2547 37.3107H28.468V43.6474H27.0647V39.2881L24.3018 42.8834H24.0094L21.2173 39.393V43.6474H20.0039V37.3107Z" fill="#0061AD"/>
<path d="M32.7016 38.4043V40.0821H36.1369C36.595 40.0821 36.824 39.9123 36.824 39.5727V38.9136C36.824 38.5741 36.595 38.4043 36.1369 38.4043H32.7016ZM31.2105 37.3107H36.7801C37.2869 37.3107 37.6524 37.4006 37.8765 37.5804C38.1104 37.7801 38.2274 38.0997 38.2274 38.5391V39.9472C38.2274 40.7662 37.745 41.1756 36.7801 41.1756H32.7016V43.6474H31.2105V37.3107Z" fill="#0061AD"/>
<path d="M45.214 41.1007L43.7667 38.4642L42.378 41.1007H45.214ZM43.1235 37.3107H44.5708L48.2985 43.6474H46.6027L45.828 42.2542H41.7348L40.96 43.6474H39.4543L43.1235 37.3107Z" fill="#0061AD"/>
<path d="M49.8405 37.3107H50.8784L56.1264 41.5202V37.3107H57.486V43.6474H56.4481L51.2146 39.378V43.6474H49.8405V37.3107Z" fill="#0061AD"/>
<path d="M62.5866 40.8011L59.2097 37.3107H61.2417L63.4491 39.6776L65.6857 37.3107H67.4545L64.0923 40.7712V43.6474H62.5866V40.8011Z" fill="#0061AD"/>
<path d="M0.26598 20.2772H13.8447V22.5109H3.37652V25.2509H9.47798V27.4249H3.37652V30.5223H13.9943V32.8751H0.26598V20.2772Z" fill="#0061AD"/>
<path d="M18.4626 20.2772H21.5732V30.5223H31.503V32.8751H18.4626V20.2772Z" fill="#0061AD"/>
<path d="M34.9652 20.2772H38.0757V25.37L45.4633 20.2772H49.9197L41.1863 26.1145L50.9067 32.8751H46.0316L38.0757 27.1867V32.8751H34.9652V20.2772Z" fill="#0061AD"/>
<path d="M53.5123 20.2772H67.091V22.5109H56.6229V25.2509H62.7243V27.4249H56.6229V30.5223H67.2406V32.8751H53.5123V20.2772Z" fill="#0061AD"/>
<path d="M51.8636 64C69.6121 64 84 49.6731 84 32C84 14.3269 69.6121 0 51.8636 0C40.0344 0 29.698 6.36419 24.1192 15.8416H31.5001L31.4531 15.7949L36.6205 10.6621L39.474 13.4916C42.2326 11.6003 45.436 10.3394 48.9043 9.86284V5.70297H56.2155V10.0564C59.5738 10.7167 62.6373 12.1463 65.2509 14.1369L68.4993 10.9103L73.6717 16.0431L70.2434 19.4484C71.9425 22.0148 73.097 24.9535 73.5817 28.1206H78.909V35.388H73.4768C72.9021 38.4855 71.6677 41.3547 69.9186 43.8467L73.6717 47.5747L68.4993 52.7125L64.7862 49.0242C62.2375 50.8609 59.294 52.1714 56.0856 52.7869V58.297H48.7793V52.9408C45.466 52.4692 42.3876 51.2779 39.7289 49.5057L36.7604 52.4544L31.7928 47.5248H23.7559C29.2413 57.3511 39.7727 64 51.8636 64Z" fill="#0061AD"/>
</svg>
