<svg width="155" height="48" viewBox="0 0 155 48" fill="none" xmlns="http://www.w3.org/2000/svg">
<g clip-path="url(#clip0_414_8049)">
<path fill-rule="evenodd" clip-rule="evenodd" d="M51.8693 12.2939H47.3433L39.5653 22.2379V12.2939H35.5273V35.0949H39.5653V24.6199L47.3073 35.0959H52.6603L43.3203 23.3179L52.3403 12.2949H51.8703L51.8693 12.2939ZM61.6553 15.5559C64.6253 15.5559 65.9493 16.5699 65.9493 18.8439C65.9493 20.9939 64.2533 22.3299 61.5233 22.3299L59.9993 22.2719V15.6149L61.6563 15.5559M56.1703 12.2949L55.9623 12.3069V35.0959H59.9993V25.6639L66.7503 35.0959H71.8283L65.6903 26.9549L64.4483 25.3749L64.0383 24.8579C67.7583 24.3039 70.1533 21.8329 70.1533 18.4459C70.1533 14.2759 67.4603 12.1619 62.1513 12.1619C59.4743 12.1619 57.6853 12.2019 56.1703 12.2949ZM77.9843 23.5129C77.9843 18.0399 81.1503 15.5889 84.2893 15.5889C88.3553 15.5889 90.5943 18.4979 90.5943 23.7779C90.5943 29.2679 87.2913 31.7679 84.2233 31.7679C80.1993 31.7679 77.9843 28.8359 77.9843 23.5129ZM73.7153 23.9429C73.7153 31.3479 77.3543 35.4279 83.9593 35.4279C90.3793 35.4279 94.8623 30.4859 94.8623 23.4139C94.8623 16.1369 91.1283 11.9629 84.6193 11.9629C78.1993 11.9629 73.7153 16.8899 73.7153 23.9429ZM117.478 12.2939H113.761V19.1419C113.761 22.1149 113.841 26.1419 113.945 28.7559C113.24 27.3679 112.513 25.9499 111.703 24.5909L104.285 12.2939H99.2233V35.0949H103.163V27.3549C103.163 24.5399 103.113 20.8799 103.017 18.5249C103.623 19.8071 104.294 21.0577 105.026 22.2719L112.705 35.0949H117.701V12.2939H117.478ZM128.079 25.0609H135.825V21.6659H128.078V15.7549H136.22V12.2939H124.039V35.0949H136.22V31.5679H128.078L128.079 25.0609Z" fill="#FCFCFC"/>
<path fill-rule="evenodd" clip-rule="evenodd" d="M140.383 18.7118C140.383 22.8598 143.454 24.0718 146.162 25.1418C148.279 25.9768 150.108 26.6988 150.108 28.6478C150.108 31.5548 147.174 31.8678 145.913 31.8678C144.472 31.8678 142.733 31.5578 141.375 31.0538L141.094 30.9498L140.867 34.8458L141.045 34.8908C142.39 35.2378 144.002 35.4288 145.583 35.4288C150.823 35.4288 154.343 32.4908 154.343 28.1168C154.343 24.0848 151.257 22.8358 148.535 21.7348C146.433 20.8848 144.619 20.1508 144.619 18.3148C144.619 16.4848 146.1 15.3918 148.583 15.3918C149.843 15.3918 151.248 15.6118 152.54 16.0118L152.81 16.0948L153.037 12.3988L152.84 12.3648C151.245 12.0918 149.955 11.9648 148.782 11.9648C143.68 11.9638 140.383 14.6128 140.383 18.7118Z" fill="#FCFCFC"/>
<path fill-rule="evenodd" clip-rule="evenodd" d="M2.30305 11.527L0.0550454 13.067C0.0411612 13.0764 0.0293135 13.0885 0.0202081 13.1026C0.0111026 13.1167 0.00492575 13.1325 0.00204536 13.149C-0.00391271 13.182 0.00326264 13.2161 0.0220454 13.244C3.35205 18.04 5.11005 23.696 5.11005 29.597C5.11005 35.473 3.35205 41.118 0.0240454 45.923C0.00561648 45.9506 -0.00153966 45.9842 0.00404536 46.017C0.0069298 46.0332 0.0130106 46.0488 0.0219361 46.0627C0.0308617 46.0766 0.0424549 46.0886 0.0560454 46.098L2.30305 47.668C2.31787 47.6783 2.33476 47.6853 2.35256 47.6885C2.37035 47.6917 2.38862 47.691 2.40611 47.6864C2.42361 47.6818 2.4399 47.6735 2.45387 47.6621C2.46784 47.6506 2.47916 47.6362 2.48705 47.62L11.337 29.654C11.3458 29.6364 11.3504 29.6171 11.3504 29.5975C11.3504 29.5779 11.3458 29.5585 11.337 29.541L2.48705 11.575C2.47921 11.559 2.46799 11.5449 2.45418 11.5337C2.44037 11.5225 2.42429 11.5144 2.40705 11.51C2.38955 11.5048 2.37111 11.5036 2.3531 11.5066C2.33509 11.5095 2.31798 11.5165 2.30305 11.527ZM21.87 0.00097898C21.8523 0.00361251 21.8352 0.00996008 21.8201 0.0196085C21.8049 0.029257 21.792 0.04199 21.782 0.056979L10.819 16.807C10.8084 16.823 10.8016 16.8413 10.7992 16.8603C10.7968 16.8794 10.7988 16.8988 10.805 16.917L17.408 35.833C17.4138 35.8503 17.4234 35.866 17.436 35.8792C17.4486 35.8923 17.464 35.9025 17.481 35.909C17.4979 35.9158 17.516 35.9189 17.5341 35.9181C17.5522 35.9172 17.57 35.9124 17.586 35.904L20.006 34.621C20.0209 34.6135 20.034 34.6031 20.0447 34.5904C20.0553 34.5776 20.0633 34.5629 20.068 34.547C20.0731 34.531 20.0748 34.5142 20.0733 34.4976C20.0718 34.4809 20.0669 34.4647 20.059 34.45C17.3423 29.2865 16.272 23.4149 16.992 17.625C17.708 11.766 20.14 6.36798 24.026 2.01498C24.0484 1.98973 24.0599 1.95666 24.058 1.92298C24.0557 1.88916 24.0403 1.85758 24.015 1.83498L21.97 0.031979C21.9565 0.0200011 21.9406 0.0110406 21.9234 0.00569503C21.9061 0.000349483 21.888 -0.00125827 21.87 0.00097898Z" fill="#FCFCFC"/>
</g>
<defs>
<clipPath id="clip0_414_8049">
<rect width="155" height="48" fill="white"/>
</clipPath>
</defs>
</svg>
